<svg width="113" height="40" viewBox="0 0 113 40" fill="none" xmlns="http://www.w3.org/2000/svg">
<path d="M13.7987 2.82591L13.976 10.1234H13.3151C13.0035 8.29366 12.2351 6.82447 11.0099 5.71585C9.79558 4.59647 8.47911 4.03678 7.06055 4.03678C5.96439 4.03678 5.09391 4.33277 4.44912 4.92475C3.81506 5.50597 3.49804 6.17867 3.49804 6.94286C3.49804 7.42721 3.61088 7.85774 3.83656 8.23446C4.14821 8.74033 4.64793 9.24082 5.33571 9.73594C5.84081 10.0911 7.00682 10.7208 8.83375 11.6249C11.3915 12.8842 13.1163 14.0735 14.0083 15.1929C14.8895 16.3123 15.3301 17.5931 15.3301 19.0354C15.3301 20.8652 14.6155 22.442 13.1861 23.7659C11.7676 25.079 9.96215 25.7356 7.76983 25.7356C7.08205 25.7356 6.43187 25.6656 5.81931 25.5257C5.20675 25.3857 4.43837 25.122 3.51416 24.7346C2.99832 24.5193 2.57382 24.4117 2.24068 24.4117C1.96126 24.4117 1.66573 24.5193 1.35408 24.7346C1.04243 24.9498 0.789879 25.2781 0.596439 25.7194H0V17.4532H0.596439C1.06929 19.7781 1.97738 21.554 3.32072 22.781C4.6748 23.9973 6.13097 24.6054 7.68923 24.6054C8.89286 24.6054 9.84931 24.2771 10.5586 23.6206C11.2786 22.964 11.6386 22.1998 11.6386 21.328C11.6386 20.8114 11.4989 20.3109 11.2195 19.8265C10.9508 19.3422 10.5371 18.8847 9.97827 18.4542C9.41944 18.0129 8.43075 17.4424 7.01219 16.7428C5.02406 15.7634 3.59476 14.9292 2.72428 14.2404C1.8538 13.5515 1.18213 12.7819 0.709279 11.9316C0.247173 11.0813 0.01612 10.1449 0.01612 9.12243C0.01612 7.37878 0.655546 5.89344 1.9344 4.66643C3.21325 3.43942 4.82525 2.82591 6.77039 2.82591C7.47967 2.82591 8.16746 2.91201 8.83375 3.08423C9.33884 3.21339 9.9514 3.45556 10.6714 3.81075C11.4022 4.15517 11.9127 4.32739 12.2028 4.32739C12.4822 4.32739 12.7025 4.24128 12.8637 4.06907C13.0249 3.89686 13.1754 3.48247 13.3151 2.82591H13.7987Z" fill="#E1261C"/>
<path d="M24.6192 4.60185V10.1234H28.1978V11.7218H24.6192V21.0374C24.6192 21.9092 24.6568 22.4743 24.7321 22.7326C24.818 22.9802 24.9631 23.1847 25.1673 23.3461C25.3715 23.4968 25.5595 23.5721 25.7315 23.5721C26.43 23.5721 27.0909 23.0394 27.7143 21.9738L28.1978 22.329C27.3274 24.3955 25.9142 25.4288 23.9583 25.4288C23.0018 25.4288 22.1905 25.1651 21.5242 24.6377C20.8686 24.0995 20.4495 23.5022 20.2668 22.8456C20.1594 22.4797 20.1056 21.4894 20.1056 19.8749V11.7218H18.139V11.1567C19.4931 10.1988 20.643 9.19239 21.5887 8.13759C22.5451 7.08279 23.378 5.90421 24.0873 4.60185H24.6192Z" fill="#E1261C"/>
<path d="M38.8088 22.9909C36.9711 24.6162 35.3215 25.4288 33.86 25.4288C33.0002 25.4288 32.2856 25.149 31.716 24.5893C31.1464 24.0188 30.8616 23.3084 30.8616 22.4581C30.8616 21.3065 31.356 20.2732 32.3447 19.3583C33.3334 18.4327 35.4881 17.2057 38.8088 15.6773V14.1596C38.8088 13.0187 38.7443 12.303 38.6154 12.0124C38.4971 11.711 38.2661 11.4527 37.9222 11.2374C37.5783 11.0114 37.1914 10.8984 36.7616 10.8984C36.063 10.8984 35.4881 11.0544 35.0367 11.3666C34.7573 11.5603 34.6176 11.7863 34.6176 12.0447C34.6176 12.2707 34.7681 12.5505 35.069 12.8842C35.4773 13.347 35.6815 13.7937 35.6815 14.2242C35.6815 14.7516 35.4827 15.2037 35.0851 15.5804C34.6982 15.9463 34.1877 16.1293 33.5537 16.1293C32.8766 16.1293 32.3071 15.9248 31.845 15.5158C31.3936 15.1068 31.1679 14.6278 31.1679 14.0789C31.1679 13.304 31.4742 12.5667 32.0868 11.8671C32.6993 11.1567 33.5537 10.6131 34.6498 10.2364C35.746 9.85971 36.8851 9.67136 38.0673 9.67136C39.4966 9.67136 40.625 9.97811 41.4525 10.5916C42.2907 11.1944 42.8334 11.8509 43.0806 12.5613C43.231 13.0134 43.3063 14.052 43.3063 15.6773V21.5379C43.3063 22.2267 43.3331 22.6626 43.3869 22.8456C43.4406 23.0178 43.5212 23.147 43.6287 23.2331C43.7361 23.3192 43.8597 23.3622 43.9994 23.3622C44.2788 23.3622 44.5636 23.1631 44.8538 22.7649L45.3374 23.1524C44.8001 23.9488 44.2412 24.5301 43.6609 24.896C43.0913 25.2512 42.4412 25.4288 41.7104 25.4288C40.8507 25.4288 40.179 25.2297 39.6954 24.8314C39.2118 24.4224 38.9163 23.8089 38.8088 22.9909ZM38.8088 21.8123V16.759C37.5085 17.5232 36.5413 18.3412 35.9072 19.213C35.4881 19.7942 35.2785 20.3808 35.2785 20.9728C35.2785 21.4679 35.4558 21.9038 35.8105 22.2805C36.0791 22.5711 36.4553 22.7165 36.9389 22.7165C37.4762 22.7165 38.0995 22.4151 38.8088 21.8123Z" fill="#E1261C"/>
<path d="M54.1107 10.1234V13.5461C55.1101 11.9855 55.986 10.9522 56.7382 10.4463C57.4905 9.92967 58.2159 9.67136 58.9144 9.67136C59.5162 9.67136 59.9945 9.85971 60.3491 10.2364C60.7145 10.6024 60.8972 11.1244 60.8972 11.8025C60.8972 12.5236 60.7199 13.0833 60.3652 13.4816C60.0213 13.8798 59.6022 14.0789 59.1079 14.0789C58.5383 14.0789 58.0439 13.8959 57.6248 13.53C57.2057 13.164 56.9585 12.9595 56.8833 12.9165C56.7758 12.8519 56.6522 12.8196 56.5125 12.8196C56.2009 12.8196 55.9053 12.938 55.6259 13.1748C55.1853 13.5408 54.8522 14.0628 54.6265 14.7409C54.2826 15.7849 54.1107 16.9366 54.1107 18.1959V21.667L54.1268 22.5711C54.1268 23.1847 54.1644 23.5775 54.2396 23.7497C54.3686 24.0403 54.5566 24.2556 54.8038 24.3955C55.0617 24.5247 55.4916 24.6054 56.0934 24.6377V25.2189H47.9528V24.6377C48.6084 24.5839 49.049 24.4063 49.2747 24.1049C49.5111 23.7928 49.6293 22.9802 49.6293 21.667V13.3201C49.6293 12.459 49.5863 11.9101 49.5003 11.6733C49.3929 11.372 49.237 11.1513 49.0329 11.0114C48.8287 10.8715 48.4687 10.7746 47.9528 10.7208V10.1234H54.1107Z" fill="#E1261C"/>
<path d="M69.2836 3.3264V22.0868C69.2836 23.1524 69.4072 23.8358 69.6543 24.1372C69.9015 24.4278 70.3851 24.5946 71.1051 24.6377V25.2189H62.9645V24.6377C63.6308 24.6162 64.1252 24.4224 64.4476 24.0565C64.6625 23.8089 64.77 23.1524 64.77 22.0868V6.45852C64.77 5.40371 64.6464 4.73101 64.3992 4.4404C64.152 4.13903 63.6738 3.96682 62.9645 3.92376V3.3264H69.2836Z" fill="#E1261C"/>
<path d="M79.3142 10.1234V22.0868C79.3142 23.1524 79.4378 23.8358 79.685 24.1372C79.9321 24.4278 80.4157 24.5946 81.1357 24.6377V25.2189H72.9952V24.6377C73.6614 24.6162 74.1558 24.4224 74.4782 24.0565C74.6931 23.8089 74.8006 23.1524 74.8006 22.0868V13.2717C74.8006 12.2061 74.677 11.528 74.4298 11.2374C74.1827 10.936 73.7044 10.7638 72.9952 10.7208V10.1234H79.3142Z" fill="#E1261C"/>
<path d="M89.4577 4.60185V10.1234H93.0363V11.7218H89.4577V21.0374C89.4577 21.9092 89.4953 22.4743 89.5705 22.7326C89.6565 22.9802 89.8015 23.1847 90.0057 23.3461C90.2099 23.4968 90.398 23.5721 90.5699 23.5721C91.2685 23.5721 91.9294 23.0394 92.5527 21.9738L93.0363 22.329C92.1658 24.3955 90.7526 25.4288 88.7967 25.4288C87.8403 25.4288 87.0289 25.1651 86.3626 24.6377C85.7071 24.0995 85.2879 23.5022 85.1053 22.8456C84.9978 22.4797 84.9441 21.4894 84.9441 19.8749V11.7218H82.9774V11.1567C84.3315 10.1988 85.4814 9.19239 86.4271 8.13759C87.3836 7.08279 88.2164 5.90421 88.9257 4.60185H89.4577Z" fill="#E1261C"/>
<path d="M108.096 17.1303H99.8268C99.9235 19.1323 100.455 20.7145 101.423 21.8769C102.164 22.7703 103.056 23.2169 104.099 23.2169C104.743 23.2169 105.329 23.0394 105.856 22.6842C106.382 22.3182 106.946 21.667 107.548 20.7306L108.096 21.0858C107.28 22.7541 106.377 23.9381 105.388 24.6377C104.4 25.3265 103.255 25.671 101.955 25.671C99.7193 25.671 98.0267 24.8099 96.8769 23.0878C95.9526 21.6993 95.4905 19.9772 95.4905 17.9214C95.4905 15.4028 96.1676 13.4008 97.5217 11.9155C98.8865 10.4194 100.482 9.67136 102.309 9.67136C103.835 9.67136 105.157 10.301 106.275 11.5603C107.403 12.8089 108.01 14.6655 108.096 17.1303ZM104.131 16.0486C104.131 14.3157 104.034 13.1264 103.841 12.4806C103.658 11.8348 103.368 11.345 102.97 11.0114C102.745 10.8176 102.444 10.7208 102.067 10.7208C101.509 10.7208 101.052 10.9952 100.697 11.5442C100.063 12.5021 99.7462 13.8152 99.7462 15.4835V16.0486H104.131Z" fill="#E1261C"/>
<path d="M5.7185 30.6808L5.79063 33.6493H5.52178C5.395 32.905 5.08244 32.3074 4.58409 31.8564C4.0901 31.4011 3.55459 31.1734 2.97755 31.1734C2.53166 31.1734 2.17756 31.2938 1.91527 31.5346C1.65735 31.771 1.52839 32.0447 1.52839 32.3555C1.52839 32.5525 1.57429 32.7277 1.6661 32.8809C1.79287 33.0867 1.99615 33.2903 2.27592 33.4917C2.48138 33.6362 2.95569 33.8923 3.69885 34.2601C4.73928 34.7723 5.4409 35.2561 5.80374 35.7115C6.16221 36.1668 6.34144 36.6878 6.34144 37.2745C6.34144 38.0188 6.05073 38.6602 5.46932 39.1988C4.89228 39.7329 4.15786 40 3.26607 40C2.9863 40 2.72182 39.9715 2.47264 39.9146C2.22346 39.8577 1.9109 39.7504 1.53495 39.5928C1.32512 39.5053 1.15244 39.4615 1.01693 39.4615C0.903266 39.4615 0.783049 39.5053 0.656275 39.5928C0.5295 39.6804 0.42677 39.8139 0.348082 39.9934H0.105463V36.6309H0.348082C0.540429 37.5766 0.909823 38.299 1.45626 38.7982C2.00707 39.2929 2.59942 39.5403 3.23329 39.5403C3.7229 39.5403 4.11196 39.4067 4.40048 39.1397C4.69337 38.8726 4.83982 38.5617 4.83982 38.2071C4.83982 37.9969 4.78299 37.7933 4.66933 37.5963C4.56004 37.3993 4.39174 37.2132 4.16442 37.0381C3.9371 36.8586 3.53492 36.6265 2.95788 36.3419C2.14915 35.9435 1.56774 35.6042 1.21364 35.324C0.85955 35.0438 0.58633 34.7307 0.393983 34.3849C0.206008 34.039 0.11202 33.6581 0.11202 33.2421C0.11202 32.5328 0.372126 31.9286 0.892337 31.4295C1.41255 30.9304 2.06828 30.6808 2.85952 30.6808C3.14804 30.6808 3.42782 30.7159 3.69885 30.7859C3.90431 30.8384 4.15349 30.937 4.44638 31.0814C4.74365 31.2215 4.95129 31.2916 5.06932 31.2916C5.18298 31.2916 5.2726 31.2566 5.33817 31.1865C5.40375 31.1165 5.46495 30.9479 5.52178 30.6808H5.7185Z" fill="#E1261C"/>
<path d="M10.8023 38.8835C10.0547 39.5447 9.38372 39.8752 8.78919 39.8752C8.43947 39.8752 8.14876 39.7614 7.91707 39.5337C7.68538 39.3017 7.56954 39.0127 7.56954 38.6668C7.56954 38.1983 7.77063 37.778 8.17281 37.4059C8.57499 37.0293 9.45148 36.5302 10.8023 35.9085V35.2912C10.8023 34.8271 10.776 34.5359 10.7236 34.4177C10.6755 34.2951 10.5815 34.19 10.4416 34.1025C10.3017 34.0105 10.1444 33.9645 9.9695 33.9645C9.68535 33.9645 9.45148 34.028 9.26787 34.155C9.15421 34.2338 9.09739 34.3257 9.09739 34.4308C9.09739 34.5228 9.15859 34.6366 9.28099 34.7723C9.44711 34.9606 9.53017 35.1423 9.53017 35.3174C9.53017 35.532 9.44929 35.7159 9.28755 35.8691C9.13017 36.018 8.92252 36.0924 8.6646 36.0924C8.3892 36.0924 8.15751 36.0092 7.96953 35.8428C7.78593 35.6764 7.69413 35.4816 7.69413 35.2583C7.69413 34.9431 7.81871 34.6432 8.06789 34.3586C8.31707 34.0696 8.6646 33.8485 9.1105 33.6953C9.55639 33.542 10.0198 33.4654 10.5006 33.4654C11.0821 33.4654 11.5411 33.5902 11.8777 33.8398C12.2187 34.0849 12.4394 34.352 12.54 34.641C12.6012 34.8249 12.6318 35.2474 12.6318 35.9085V38.2925C12.6318 38.5727 12.6427 38.75 12.6645 38.8244C12.6864 38.8945 12.7192 38.947 12.7629 38.9821C12.8066 39.0171 12.8569 39.0346 12.9137 39.0346C13.0274 39.0346 13.1432 38.9536 13.2613 38.7916L13.458 38.9492C13.2394 39.2732 13.0121 39.5096 12.776 39.6585C12.5443 39.803 12.2799 39.8752 11.9826 39.8752C11.6329 39.8752 11.3596 39.7942 11.1629 39.6322C10.9662 39.4659 10.846 39.2163 10.8023 38.8835ZM10.8023 38.4041V36.3485C10.2733 36.6594 9.87989 36.9921 9.62197 37.3468C9.45148 37.5832 9.36623 37.8218 9.36623 38.0626C9.36623 38.264 9.43836 38.4413 9.58262 38.5946C9.69191 38.7128 9.84492 38.7719 10.0416 38.7719C10.2602 38.7719 10.5138 38.6493 10.8023 38.4041Z" fill="#E1261C"/>
<path d="M16.9024 34.2929V38.5552C16.9024 38.9667 16.9462 39.225 17.0336 39.3301C17.1735 39.4921 17.4314 39.5666 17.8073 39.5534V39.7898H14.1943V39.5534C14.4697 39.549 14.6642 39.5184 14.7779 39.4615C14.8959 39.4002 14.9768 39.317 15.0205 39.2119C15.0642 39.1068 15.0861 38.8879 15.0861 38.5552V34.2929H14.1943V33.6493H15.0861V33.1961L15.0795 32.8875C15.0795 32.257 15.309 31.7316 15.768 31.3113C16.2314 30.891 16.8565 30.6808 17.6434 30.6808C18.1811 30.6808 18.5789 30.7815 18.8368 30.9829C19.0991 31.1843 19.2303 31.4076 19.2303 31.6528C19.2303 31.8498 19.1494 32.0206 18.9877 32.1651C18.8259 32.3095 18.6117 32.3818 18.345 32.3818C18.1177 32.3818 17.9363 32.3227 17.8008 32.2045C17.6696 32.0863 17.6041 31.9549 17.6041 31.8104C17.6041 31.771 17.6172 31.69 17.6434 31.5674C17.6609 31.493 17.6696 31.4229 17.6696 31.3573C17.6696 31.2653 17.6434 31.1975 17.591 31.1537C17.521 31.088 17.4358 31.0552 17.3352 31.0552C17.2084 31.0552 17.1013 31.1077 17.0139 31.2128C16.9309 31.3179 16.8893 31.4864 16.8893 31.7185L16.9024 32.8678V33.6493H17.8073V34.2929H16.9024Z" fill="#E1261C"/>
<path d="M23.96 36.4996H20.5961C20.6354 37.3139 20.8518 37.9575 21.2452 38.4304C21.5469 38.7938 21.9097 38.9755 22.3338 38.9755C22.596 38.9755 22.8343 38.9032 23.0485 38.7588C23.2627 38.6099 23.4922 38.345 23.737 37.9641L23.96 38.1086C23.6277 38.7872 23.2605 39.2688 22.8583 39.5534C22.4562 39.8336 21.9906 39.9737 21.4616 39.9737C20.5524 39.9737 19.8638 39.6235 19.3961 38.9229C19.0201 38.3581 18.8322 37.6576 18.8322 36.8214C18.8322 35.7968 19.1076 34.9825 19.6584 34.3783C20.2136 33.7697 20.8627 33.4654 21.6059 33.4654C22.2267 33.4654 22.7644 33.7215 23.219 34.2338C23.678 34.7417 23.925 35.4969 23.96 36.4996ZM22.3469 36.0595C22.3469 35.3546 22.3075 34.8708 22.2288 34.6081C22.1545 34.3454 22.0365 34.1462 21.8747 34.0105C21.7829 33.9317 21.6605 33.8923 21.5075 33.8923C21.2802 33.8923 21.0944 34.0039 20.9502 34.2272C20.6922 34.6169 20.5633 35.1511 20.5633 35.8297V36.0595H22.3469Z" fill="#E1261C"/>
<path d="M35.4455 34.4637H38.1734V34.7198C37.8674 34.7636 37.6269 34.8555 37.4521 34.9956C37.2772 35.1314 37.0499 35.451 36.7701 35.9545C36.4903 36.458 36.0969 37.0206 35.5898 37.6423C36.0357 38.0451 36.3985 38.3253 36.6783 38.4829C36.875 38.5924 37.0674 38.6471 37.2553 38.6471C37.5788 38.6471 37.8717 38.4348 38.134 38.0101L38.4029 38.1546C38.0444 38.8595 37.6619 39.3608 37.2553 39.6585C36.945 39.8818 36.5909 39.9934 36.1931 39.9934C35.8521 39.9934 35.5264 39.9212 35.216 39.7767C34.91 39.6278 34.5363 39.352 34.0947 38.9492C33.5483 39.317 33.0346 39.5841 32.5538 39.7504C32.0729 39.9124 31.5724 39.9934 31.0522 39.9934C30.2216 39.9934 29.5615 39.768 29.0719 39.317C28.5823 38.866 28.3374 38.3363 28.3374 37.7277C28.3374 37.0709 28.5713 36.4996 29.0391 36.0136C29.5068 35.5276 30.1866 35.1073 31.0784 34.7526C30.9647 34.468 30.8795 34.19 30.8227 33.9186C30.7658 33.6471 30.7374 33.3844 30.7374 33.1305C30.7374 32.4299 30.9822 31.8476 31.4718 31.3835C31.9658 30.9151 32.5953 30.6808 33.3603 30.6808C33.9767 30.6808 34.4641 30.8363 34.8226 31.1471C35.1854 31.4536 35.3669 31.8126 35.3669 32.2242C35.3669 32.7189 35.1811 33.1436 34.8095 33.4982C34.4423 33.8485 33.8587 34.1703 33.0587 34.4637C33.5527 35.3349 34.2762 36.2741 35.2291 37.2811C35.8718 36.5587 36.1931 35.9391 36.1931 35.4225C36.1931 35.2386 36.1297 35.0832 36.0029 34.9562C35.8761 34.8249 35.6903 34.7461 35.4455 34.7198V34.4637ZM32.8357 34.0696C33.2948 33.8989 33.6029 33.7172 33.7603 33.5245C33.9177 33.3275 33.9964 33.0911 33.9964 32.8152C33.9964 32.3249 33.8674 31.9111 33.6095 31.574C33.439 31.3507 33.2292 31.2391 32.98 31.2391C32.7745 31.2391 32.5975 31.3201 32.4489 31.482C32.3046 31.644 32.2325 31.863 32.2325 32.1388C32.2325 32.3533 32.2674 32.5832 32.3374 32.8284C32.4073 33.0736 32.5734 33.4873 32.8357 34.0696ZM31.262 35.1729C30.9123 35.3218 30.6653 35.4794 30.521 35.6458C30.3156 35.891 30.2128 36.1646 30.2128 36.4667C30.2128 36.8783 30.3309 37.2877 30.5669 37.6948C30.8074 38.102 31.0959 38.4173 31.4325 38.6405C31.7691 38.8638 32.1057 38.9755 32.4423 38.9755C32.6084 38.9755 32.7942 38.9405 32.9997 38.8704C33.2095 38.796 33.4368 38.6865 33.6816 38.542C32.6281 37.4606 31.8215 36.3376 31.262 35.1729Z" fill="#E1261C"/>
<path d="M48.8131 30.6808L48.8852 33.6493H48.6163C48.4896 32.905 48.177 32.3074 47.6786 31.8564C47.1847 31.4011 46.6492 31.1734 46.0721 31.1734C45.6262 31.1734 45.2721 31.2938 45.0098 31.5346C44.7519 31.771 44.623 32.0447 44.623 32.3555C44.623 32.5525 44.6689 32.7277 44.7607 32.8809C44.8874 33.0867 45.0907 33.2903 45.3705 33.4917C45.5759 33.6362 46.0503 33.8923 46.7934 34.2601C47.8338 34.7723 48.5355 35.2561 48.8983 35.7115C49.2568 36.1668 49.436 36.6878 49.436 37.2745C49.436 38.0188 49.1453 38.6602 48.5639 39.1988C47.9868 39.7329 47.2524 40 46.3606 40C46.0809 40 45.8164 39.9715 45.5672 39.9146C45.318 39.8577 45.0055 39.7504 44.6295 39.5928C44.4197 39.5053 44.247 39.4615 44.1115 39.4615C43.9978 39.4615 43.8776 39.5053 43.7508 39.5928C43.6241 39.6804 43.5213 39.8139 43.4426 39.9934H43.2V36.6309H43.4426C43.635 37.5766 44.0044 38.299 44.5508 38.7982C45.1016 39.2929 45.694 39.5403 46.3278 39.5403C46.8175 39.5403 47.2065 39.4067 47.495 39.1397C47.7879 38.8726 47.9344 38.5617 47.9344 38.2071C47.9344 37.9969 47.8776 37.7933 47.7639 37.5963C47.6546 37.3993 47.4863 37.2132 47.259 37.0381C47.0317 36.8586 46.6295 36.6265 46.0524 36.3419C45.2437 35.9435 44.6623 35.6042 44.3082 35.324C43.9541 35.0438 43.6809 34.7307 43.4885 34.3849C43.3006 34.039 43.2066 33.6581 43.2066 33.2421C43.2066 32.5328 43.4667 31.9286 43.9869 31.4295C44.5071 30.9304 45.1628 30.6808 45.9541 30.6808C46.2426 30.6808 46.5224 30.7159 46.7934 30.7859C46.9989 30.8384 47.2481 30.937 47.5409 31.0814C47.8382 31.2215 48.0459 31.2916 48.1639 31.2916C48.2775 31.2916 48.3672 31.2566 48.4327 31.1865C48.4983 31.1165 48.5595 30.9479 48.6163 30.6808H48.8131Z" fill="#E1261C"/>
<path d="M53.8968 38.8835C53.1493 39.5447 52.4783 39.8752 51.8838 39.8752C51.534 39.8752 51.2433 39.7614 51.0116 39.5337C50.7799 39.3017 50.6641 39.0127 50.6641 38.6668C50.6641 38.1983 50.8652 37.778 51.2674 37.4059C51.6695 37.0293 52.546 36.5302 53.8968 35.9085V35.2912C53.8968 34.8271 53.8706 34.5359 53.8181 34.4177C53.7701 34.2951 53.6761 34.19 53.5362 34.1025C53.3963 34.0105 53.2389 33.9645 53.0641 33.9645C52.7799 33.9645 52.546 34.028 52.3624 34.155C52.2488 34.2338 52.1919 34.3257 52.1919 34.4308C52.1919 34.5228 52.2531 34.6366 52.3755 34.7723C52.5417 34.9606 52.6247 35.1423 52.6247 35.3174C52.6247 35.532 52.5438 35.7159 52.3821 35.8691C52.2247 36.018 52.0171 36.0924 51.7592 36.0924C51.4838 36.0924 51.2521 36.0092 51.0641 35.8428C50.8805 35.6764 50.7887 35.4816 50.7887 35.2583C50.7887 34.9431 50.9133 34.6432 51.1625 34.3586C51.4116 34.0696 51.7592 33.8485 52.2051 33.6953C52.651 33.542 53.1143 33.4654 53.5952 33.4654C54.1766 33.4654 54.6356 33.5902 54.9722 33.8398C55.3132 34.0849 55.534 34.352 55.6345 34.641C55.6957 34.8249 55.7263 35.2474 55.7263 35.9085V38.2925C55.7263 38.5727 55.7372 38.75 55.7591 38.8244C55.781 38.8945 55.8138 38.947 55.8575 38.9821C55.9012 39.0171 55.9515 39.0346 56.0083 39.0346C56.1219 39.0346 56.2378 38.9536 56.3558 38.7916L56.5525 38.9492C56.334 39.2732 56.1066 39.5096 55.8706 39.6585C55.6389 39.803 55.3744 39.8752 55.0771 39.8752C54.7274 39.8752 54.4542 39.7942 54.2575 39.6322C54.0608 39.4659 53.9406 39.2163 53.8968 38.8835ZM53.8968 38.4041V36.3485C53.3679 36.6594 52.9744 36.9921 52.7165 37.3468C52.546 37.5832 52.4608 37.8218 52.4608 38.0626C52.4608 38.264 52.5329 38.4413 52.6772 38.5946C52.7865 38.7128 52.9395 38.7719 53.1362 38.7719C53.3548 38.7719 53.6083 38.6493 53.8968 38.4041Z" fill="#E1261C"/>
<path d="M60.0757 39.9737L58.0101 35.2123C57.761 34.6388 57.5664 34.2754 57.4265 34.1222C57.326 34.0083 57.1774 33.9317 56.9806 33.8923V33.6493H60.2396V33.8923C60.0342 33.8923 59.8943 33.9295 59.82 34.0039C59.715 34.1003 59.6626 34.2141 59.6626 34.3454C59.6626 34.5074 59.7587 34.8117 59.9511 35.2583L60.9609 37.5635L61.7675 35.5736C61.9992 35.0044 62.115 34.6016 62.115 34.3652C62.115 34.2294 62.0647 34.12 61.9642 34.0368C61.868 33.9492 61.6953 33.9011 61.4462 33.8923V33.6493H63.4527V33.8923C63.2603 33.9186 63.103 33.9908 62.9806 34.109C62.8582 34.2272 62.6746 34.5753 62.4297 35.1532L60.3839 39.9737H60.0757Z" fill="#E1261C"/>
<path d="M69.2971 36.4996H65.9332C65.9726 37.3139 66.189 37.9575 66.5824 38.4304C66.884 38.7938 67.2469 38.9755 67.6709 38.9755C67.9332 38.9755 68.1714 38.9032 68.3857 38.7588C68.5999 38.6099 68.8294 38.345 69.0742 37.9641L69.2971 38.1086C68.9649 38.7872 68.5977 39.2688 68.1955 39.5534C67.7933 39.8336 67.3277 39.9737 66.7988 39.9737C65.8895 39.9737 65.201 39.6235 64.7332 38.9229C64.3573 38.3581 64.1693 37.6576 64.1693 36.8214C64.1693 35.7968 64.4447 34.9825 64.9955 34.3783C65.5507 33.7697 66.1999 33.4654 66.943 33.4654C67.5638 33.4654 68.1015 33.7215 68.5561 34.2338C69.0152 34.7417 69.2621 35.4969 69.2971 36.4996ZM67.684 36.0595C67.684 35.3546 67.6447 34.8708 67.566 34.6081C67.4917 34.3454 67.3736 34.1462 67.2119 34.0105C67.1201 33.9317 66.9977 33.8923 66.8447 33.8923C66.6174 33.8923 66.4316 34.0039 66.2873 34.2272C66.0294 34.6169 65.9004 35.1511 65.9004 35.8297V36.0595H67.684Z" fill="#E1261C"/>
<path d="M76.3492 0L77.417 3.29155L80.8726 3.29155L78.077 5.32584L79.1448 8.61738L76.3492 6.5831L73.5535 8.61738L74.6214 5.32584L71.8257 3.29155L75.2813 3.29155L76.3492 0Z" fill="#E1261C"/>
<path fill-rule="evenodd" clip-rule="evenodd" d="M109.181 2.24629C108.219 2.30759 107.389 2.67036 106.747 3.31095C105.931 4.12347 105.572 5.34823 105.787 6.58557C105.959 7.58007 106.513 8.42672 107.341 8.95823C108.322 9.58787 109.668 9.70526 110.783 9.25844C111.799 8.85184 112.551 8.02407 112.856 6.97924C112.96 6.6189 113 6.31912 113 5.88565C113 5.55022 112.984 5.36868 112.932 5.10869C112.66 3.7466 111.656 2.69304 110.312 2.36091C109.957 2.27292 109.496 2.22623 109.181 2.24629ZM109.113 2.88715C108.774 2.91475 108.39 3.02165 108.093 3.17072C107.26 3.58944 106.709 4.3739 106.556 5.36071C106.514 5.63345 106.514 6.1543 106.556 6.41059C106.713 7.36906 107.173 8.08216 107.919 8.52246C108.587 8.91651 109.522 9.00654 110.29 8.75062C110.498 8.68118 110.774 8.54506 110.966 8.41627C111.168 8.28194 111.497 7.96063 111.647 7.7521C111.791 7.55197 111.963 7.21371 112.041 6.97962C112.344 6.06661 112.24 4.98191 111.776 4.2222C111.486 3.7469 111.113 3.40381 110.632 3.1692C110.281 2.99812 110.01 2.92233 109.622 2.88715C109.407 2.86771 109.351 2.86771 109.113 2.88715ZM107.975 7.96874H108.637V6.25156L109.285 6.26061L109.578 6.73555C109.74 6.99677 109.977 7.38111 110.105 7.58962L110.338 7.96874H111.099L111.054 7.89792C111.029 7.85897 110.777 7.47017 110.494 7.03393C110.211 6.5977 109.975 6.22948 109.97 6.21566C109.962 6.19565 109.98 6.18845 110.06 6.18023C110.115 6.17457 110.226 6.14822 110.307 6.12169C110.674 6.00054 110.889 5.78423 110.982 5.44094C111.032 5.25989 111.032 4.91733 110.982 4.73055C110.872 4.31954 110.596 4.09036 110.081 3.98189C109.931 3.95046 109.845 3.94731 108.947 3.94056L107.975 3.93326V7.96874ZM108.646 5.67734L109.206 5.67546C109.722 5.67373 109.777 5.67073 109.901 5.63795C110.194 5.56012 110.32 5.41139 110.346 5.11298C110.366 4.87902 110.274 4.70261 110.084 4.60888C109.908 4.52248 109.835 4.51398 109.21 4.50658L108.637 4.49978L108.646 5.67734Z" fill="#E1261C"/>
</svg>
